#!OML:ASF H:\Terrain\Patient Classification 1\Takeo\Monday\TakeoMonday.ASF
:FULLY-SPECIFIED
:DEGREES
678
root 3.20408 14.9254 1.15333 -173.181 51.4567 -183.881
lowerback 25.9565 -2.69236 3.58289
upperback 11.9134 -0.843537 0.70347
thorax -1.24985 0.414758 -1.07452
lowerneck -0.355386 -21.2351 -11.647
upperneck -9.839 -28.1095 26.3096
head 2.71484 -14.3565 7.67386
rclavicle 3.4191e-014 2.18663e-014
rhumerus 49.187 47.8014 -64.8172
rradius 53.0593
rwrist -3.9917
rhand -45.1922 56.3426
rfingers 7.12502
rthumb -17.9686 27.1526
lclavicle 3.4191e-014 2.18663e-014
lhumerus 8.05182 -7.44613 78.4038
lradius 102.639
lwrist 19.5476
lhand -46.8078 27.0867
lfingers 7.12502
lthumb -19.5225 56.1266
rfemur -45.2653 -30.9442 9.09778
rtibia 77.0428
rfoot -30.7047 -13.2654
rtoes -6.7578
lfemur -56.3995 9.39567 -25.4895
ltibia 73.3451
lfoot -21.44 -5.44147
ltoes -2.16771
679
root 3.20592 14.8706 1.13223 -173.131 51.3924 -183.76
lowerback 26.1159 -2.67513 3.86146
upperback 12.1144 -0.70103 0.741619
thorax -1.09717 0.519765 -1.22678
lowerneck -0.466606 -21.2904 -11.7614
upperneck -9.62653 -28.2264 26.242
head 2.81831 -14.3947 7.62049
rclavicle 2.14687e-014 -5.88403e-014
rhumerus 50.5032 47.7006 -63.8844
rradius 52.9544
rwrist -3.379
rhand -44.9141 56.5083
rfingers 7.12502
rthumb -17.701 27.294
lclavicle 2.14687e-014 -5.88403e-014
lhumerus 8.02636 -6.97381 78.5558
lradius 103.369
lwrist 19.4453
lhand -47.58 26.3886
lfingers 7.12502
lthumb -20.2648 55.3514
rfemur -45.4734 -31.147 9.00557
rtibia 77.6725
rfoot -30.9787 -13.2382
rtoes -7.34296
lfemur -56.7835 9.2792 -25.5001
ltibia 74.0805
lfoot -21.7983 -5.53277
ltoes -1.57885
680
root 3.20649 14.8089 1.1264 -173.24 51.249 -183.749
lowerback 26.3013 -2.62605 4.0777
upperback 12.3186 -0.530237 0.703038
thorax -0.949766 0.641097 -1.43416
lowerneck -0.0405981 -21.2477 -11.8882
upperneck -9.82324 -28.177 26.5163
head 2.75282 -14.4153 7.77102
rclavicle 1.82882e-014 7.15625e-015
rhumerus 51.8752 47.562 -62.8962
rradius 52.7223
rwrist -3.17595
rhand -44.9478 57.686
rfingers 7.12502
rthumb -17.7334 28.4746
lclavicle 1.82882e-014 7.15625e-015
lhumerus 8.165 -6.73885 78.6946
lradius 103.923
lwrist 19.4934
lhand -48.2226 26.1427
lfingers 7.12502
lthumb -20.8823 55.0388
rfemur -45.6779 -31.5105 8.92353
rtibia 78.4044
rfoot -31.001 -13.6751
rtoes -9.35233
lfemur -57.0944 9.29979 -25.5905
ltibia 74.8277
lfoot -22.0206 -5.51868
ltoes -1.64107
681
root 3.20193 14.7396 1.14857 -173.175 50.9216 -183.995
lowerback 26.3166 -2.66459 4.58575
upperback 12.3381 -0.477964 0.157585
thorax -0.936789 0.710649 -2.32962
lowerneck 0.665328 -21.2442 -11.3993
upperneck -10.1907 -28.1433 27.2541
head 2.59079 -14.5002 8.02472
rclavicle 6.67916e-014 1.90833e-014
rhumerus 52.4537 47.0475 -63.4414
rradius 52.4374
rwrist -2.7679
rhand -44.7486 58.2423
rfingers 7.12502
rthumb -17.5417 29.0137
lclavicle 6.67916e-014 1.90833e-014
lhumerus 8.4562 -6.90405 77.8912
lradius 104.486
lwrist 19.9859
lhand -48.3157 25.7958
lfingers 7.12502
lthumb -20.9717 54.682
rfemur -46.4869 -31.9866 9.02074
rtibia 79.274
rfoot -30.9898 -14.0454
rtoes -10.1778
lfemur -57.8823 9.20277 -25.8543
ltibia 75.5831
lfoot -22.1652 -5.53131
ltoes -2.76721
682
root 3.19404 14.6661 1.20877 -172.361 50.4573 -183.955
lowerback 25.7302 -2.16778 3.58356
upperback 12.5335 -0.0436148 1.03968
thorax -0.418097 0.871468 -0.909213
lowerneck 0.480655 -21.3797 -11.86
upperneck -10.5926 -28.2862 27.185
head 2.58125 -14.5642 8.02031
rclavicle 1.17681e-013 -4.45278e-014
rhumerus 54.2423 46.8428 -61.1714
rradius 52.3625
rwrist -2.35935
rhand -44.5974 58.0864
rfingers 7.12502
rthumb -17.3962 28.8449
lclavicle 1.17681e-013 -4.45278e-014
lhumerus 8.76383 -6.59693 78.9342
lradius 105.071
lwrist 18.5486
lhand -49.051 28.1372
lfingers 7.12502
lthumb -21.678 56.9435
rfemur -48.1524 -32.3449 9.83666
rtibia 80.4094
rfoot -31.3683 -14.1311
rtoes -8.91212
lfemur -59.4349 9.22926 -25.9148
ltibia 76.3729
lfoot -22.2417 -5.85497
ltoes -3.99579
683
root 3.19113 14.6121 1.24665 -171.568 50.2445 -183.287
lowerback 26.0984 -2.06702 3.6019
upperback 12.4602 0.128642 1.28747
thorax -0.666954 0.946753 -0.698615
lowerneck 0.0672487 -21.3761 -11.9014
upperneck -9.97036 -28.3645 26.9158
head 2.7989 -14.5382 7.85736
rclavicle 2.22639e-014 -3.18055e-015
rhumerus 55.2659 46.9903 -60.6117
rradius 52.058
rwrist -1.40831
rhand -45.3191 58.7595
rfingers 7.12502
rthumb -18.0907 29.5808
lclavicle 2.22639e-014 -3.18055e-015
lhumerus 8.4791 -5.71069 79.2238
lradius 105.619
lwrist 19.3838
lhand -49.3467 25.8878
lfingers 7.12502
lthumb -21.9619 54.6611
rfemur -49.0246 -32.3443 10.7129
rtibia 81.4009
rfoot -32.0193 -14.1008
rtoes -7.60664
lfemur -60.3473 9.60007 -25.532
ltibia 77.1117
lfoot -22.3877 -6.11355
ltoes -4.8849
684
root 3.18843 14.5318 1.30491 -170.194 50.234 -183.139
lowerback 24.9829 -1.65192 3.02528
upperback 12.4489 0.433878 1.60502
thorax -0.149672 1.04368 -0.096291
lowerneck -0.317131 -21.4709 -12.064
upperneck -9.71705 -28.5314 26.9187
head 2.98641 -14.5766 7.78008
rclavicle 1.43125e-014 7.15625e-015
rhumerus 56.9261 46.936 -59.2266
rradius 51.7561
rwrist -0.690692
rhand -45.7788 59.5866
rfingers 7.12502
rthumb -18.5329 30.4494
lclavicle 1.43125e-014 7.15625e-015
lhumerus 8.58064 -5.07306 79.7747
lradius 106.022
lwrist 19.4394
lhand -48.708 23.8612
lfingers 7.12502
lthumb -21.3486 52.7052
rfemur -51.4898 -32.1979 12.0804
rtibia 82.5225
rfoot -32.3243 -14.9312
rtoes -7.80224
lfemur -62.561 10.2309 -25.668
ltibia 77.9174
lfoot -22.1611 -6.78924
ltoes -4.77122
